# Blender v2.78 (sub 0) OBJ File: ''
# www.blender.org
mtllib test.mtl
o Torus
v 1.250000 0.000000 0.000000
v 1.155872 0.195458 0.000000
v 0.944370 0.243732 0.000000
v 0.774758 0.108471 0.000000
v 0.774758 -0.108471 0.000000
v 0.944370 -0.243732 0.000000
v 1.155872 -0.195458 0.000000
v 1.011271 0.000000 -0.734732
v 0.935120 0.195458 -0.679405
v 0.764011 0.243732 -0.555087
v 0.626792 0.108471 -0.455391
v 0.626792 -0.108471 -0.455391
v 0.764011 -0.243732 -0.555087
v 0.935120 -0.195458 -0.679405
v 0.386272 0.000000 -1.188821
v 0.357184 0.195458 -1.099300
v 0.291826 0.243732 -0.898149
v 0.239413 0.108471 -0.736838
v 0.239413 -0.108471 -0.736838
v 0.291826 -0.243732 -0.898149
v 0.357184 -0.195458 -1.099300
v -0.386271 0.000000 -1.188821
v -0.357184 0.195458 -1.099300
v -0.291826 0.243732 -0.898149
v -0.239413 0.108471 -0.736838
v -0.239413 -0.108471 -0.736838
v -0.291826 -0.243732 -0.898149
v -0.357184 -0.195458 -1.099300
v -1.011271 0.000000 -0.734731
v -0.935121 0.195458 -0.679404
v -0.764011 0.243732 -0.555086
v -0.626792 0.108471 -0.455391
v -0.626792 -0.108471 -0.455391
v -0.764011 -0.243732 -0.555086
v -0.935121 -0.195458 -0.679404
v -1.250000 0.000000 -0.000000
v -1.155872 0.195458 -0.000000
v -0.944370 0.243732 -0.000000
v -0.774758 0.108471 -0.000000
v -0.774758 -0.108471 -0.000000
v -0.944370 -0.243732 -0.000000
v -1.155872 -0.195458 -0.000000
v -1.011271 0.000000 0.734731
v -0.935121 0.195458 0.679404
v -0.764011 0.243732 0.555086
v -0.626792 0.108471 0.455391
v -0.626792 -0.108471 0.455391
v -0.764011 -0.243732 0.555086
v -0.935121 -0.195458 0.679404
v -0.386271 0.000000 1.188821
v -0.357184 0.195458 1.099300
v -0.291826 0.243732 0.898149
v -0.239413 0.108471 0.736838
v -0.239413 -0.108471 0.736838
v -0.291826 -0.243732 0.898149
v -0.357184 -0.195458 1.099300
v 0.386272 0.000000 1.188821
v 0.357184 0.195458 1.099300
v 0.291826 0.243732 0.898149
v 0.239413 0.108471 0.736838
v 0.239413 -0.108471 0.736838
v 0.291826 -0.243732 0.898149
v 0.357184 -0.195458 1.099300
v 1.011271 0.000000 0.734732
v 0.935120 0.195458 0.679405
v 0.764011 0.243732 0.555087
v 0.626792 0.108471 0.455392
v 0.626792 -0.108471 0.455392
v 0.764011 -0.243732 0.555087
v 0.935120 -0.195458 0.679405
vn 0.8647 0.4164 -0.2810
vn 0.2219 0.9724 -0.0721
vn -0.6111 0.7663 0.1986
vn -0.9511 0.0000 0.3090
vn -0.6111 -0.7663 0.1986
vn 0.2219 -0.9724 -0.0721
vn 0.8647 -0.4164 -0.2810
vn 0.5344 0.4164 -0.7355
vn 0.1372 0.9724 -0.1888
vn -0.3777 0.7663 0.5198
vn -0.5878 0.0000 0.8090
vn -0.3777 -0.7663 0.5198
vn 0.1372 -0.9724 -0.1888
vn 0.5344 -0.4164 -0.7355
vn 0.0000 0.4164 -0.9092
vn 0.0000 0.9724 -0.2334
vn 0.0000 0.7663 0.6425
vn 0.0000 0.0000 1.0000
vn 0.0000 -0.7663 0.6425
vn 0.0000 -0.9724 -0.2334
vn 0.0000 -0.4164 -0.9092
vn -0.5344 0.4164 -0.7355
vn -0.1372 0.9724 -0.1888
vn 0.3777 0.7663 0.5198
vn 0.5878 0.0000 0.8090
vn 0.3777 -0.7663 0.5198
vn -0.1372 -0.9724 -0.1888
vn -0.5344 -0.4164 -0.7355
vn -0.8647 0.4164 -0.2810
vn -0.2219 0.9724 -0.0721
vn 0.6111 0.7663 0.1986
vn 0.9511 0.0000 0.3090
vn 0.6111 -0.7663 0.1986
vn -0.2219 -0.9724 -0.0721
vn -0.8647 -0.4164 -0.2810
vn -0.8647 0.4164 0.2810
vn -0.2219 0.9724 0.0721
vn 0.6111 0.7663 -0.1986
vn 0.9511 0.0000 -0.3090
vn 0.6111 -0.7663 -0.1986
vn -0.2219 -0.9724 0.0721
vn -0.8647 -0.4164 0.2810
vn -0.5344 0.4164 0.7355
vn -0.1372 0.9724 0.1888
vn 0.3777 0.7663 -0.5198
vn 0.5878 0.0000 -0.8090
vn 0.3777 -0.7663 -0.5198
vn -0.1372 -0.9724 0.1888
vn -0.5344 -0.4164 0.7355
vn 0.0000 0.4164 0.9092
vn 0.0000 0.9724 0.2334
vn 0.0000 0.7663 -0.6425
vn 0.0000 0.0000 -1.0000
vn 0.0000 -0.7663 -0.6425
vn 0.0000 -0.9724 0.2334
vn 0.0000 -0.4164 0.9092
vn 0.5344 0.4164 0.7355
vn 0.1372 0.9724 0.1888
vn -0.3777 0.7663 -0.5198
vn -0.5878 0.0000 -0.8090
vn -0.3777 -0.7663 -0.5198
vn 0.1372 -0.9724 0.1888
vn 0.5344 -0.4164 0.7355
vn 0.8647 0.4164 0.2810
vn 0.2219 0.9724 0.0721
vn -0.6111 0.7663 -0.1986
vn -0.9511 0.0000 -0.3090
vn -0.6111 -0.7663 -0.1986
vn 0.2219 -0.9724 0.0721
vn 0.8647 -0.4164 0.2810
usemtl Material.001
s off
f 1//1 8//1 9//1 2//1
f 2//2 9//2 10//2 3//2
f 3//3 10//3 11//3 4//3
f 4//4 11//4 12//4 5//4
f 5//5 12//5 13//5 6//5
f 6//6 13//6 14//6 7//6
f 1//7 7//7 14//7 8//7
f 8//8 15//8 16//8 9//8
f 9//9 16//9 17//9 10//9
f 10//10 17//10 18//10 11//10
f 11//11 18//11 19//11 12//11
f 12//12 19//12 20//12 13//12
f 13//13 20//13 21//13 14//13
f 14//14 21//14 15//14 8//14
f 15//15 22//15 23//15 16//15
f 16//16 23//16 24//16 17//16
f 17//17 24//17 25//17 18//17
f 18//18 25//18 26//18 19//18
f 19//19 26//19 27//19 20//19
f 20//20 27//20 28//20 21//20
f 21//21 28//21 22//21 15//21
f 22//22 29//22 30//22 23//22
f 23//23 30//23 31//23 24//23
f 24//24 31//24 32//24 25//24
f 25//25 32//25 33//25 26//25
f 26//26 33//26 34//26 27//26
f 27//27 34//27 35//27 28//27
f 28//28 35//28 29//28 22//28
f 29//29 36//29 37//29 30//29
f 30//30 37//30 38//30 31//30
f 31//31 38//31 39//31 32//31
f 32//32 39//32 40//32 33//32
f 33//33 40//33 41//33 34//33
f 34//34 41//34 42//34 35//34
f 35//35 42//35 36//35 29//35
f 36//36 43//36 44//36 37//36
f 37//37 44//37 45//37 38//37
f 38//38 45//38 46//38 39//38
f 39//39 46//39 47//39 40//39
f 40//40 47//40 48//40 41//40
f 41//41 48//41 49//41 42//41
f 42//42 49//42 43//42 36//42
f 43//43 50//43 51//43 44//43
f 44//44 51//44 52//44 45//44
f 45//45 52//45 53//45 46//45
f 46//46 53//46 54//46 47//46
f 47//47 54//47 55//47 48//47
f 48//48 55//48 56//48 49//48
f 49//49 56//49 50//49 43//49
f 50//50 57//50 58//50 51//50
f 51//51 58//51 59//51 52//51
f 52//52 59//52 60//52 53//52
f 53//53 60//53 61//53 54//53
f 54//54 61//54 62//54 55//54
f 55//55 62//55 63//55 56//55
f 56//56 63//56 57//56 50//56
f 57//57 64//57 65//57 58//57
f 58//58 65//58 66//58 59//58
f 59//59 66//59 67//59 60//59
f 60//60 67//60 68//60 61//60
f 61//61 68//61 69//61 62//61
f 62//62 69//62 70//62 63//62
f 63//63 70//63 64//63 57//63
f 64//64 1//64 2//64 65//64
f 65//65 2//65 3//65 66//65
f 66//66 3//66 4//66 67//66
f 67//67 4//67 5//67 68//67
f 68//68 5//68 6//68 69//68
f 69//69 6//69 7//69 70//69
f 70//70 7//70 1//70 64//70
